<svg xmlns="http://www.w3.org/2000/svg" viewBox="0 0 32 32" width="256" height="256" style="image-rendering: pixelated;">
  <rect width="32" height="32" fill="#0a1510"/>
  <!-- Flat top head -->
  <rect x="8" y="4" width="16" height="4" fill="#5a8a5a"/>
  <rect x="6" y="4" width="4" height="2" fill="#4a7a4a"/>
  <rect x="22" y="4" width="4" height="2" fill="#4a7a4a"/>
  <!-- Bolts -->
  <rect x="4" y="10" width="4" height="4" fill="#888888"/>
  <rect x="5" y="11" width="2" height="2" fill="#aaaaaa"/>
  <rect x="24" y="10" width="4" height="4" fill="#888888"/>
  <rect x="25" y="11" width="2" height="2" fill="#aaaaaa"/>
  <!-- Face -->
  <rect x="8" y="6" width="16" height="16" fill="#6a9a6a"/>
  <!-- Forehead stitches -->
  <rect x="10" y="7" width="12" height="1" fill="#3a5a3a"/>
  <rect x="12" y="6" width="1" height="3" fill="#3a5a3a"/>
  <rect x="16" y="6" width="1" height="3" fill="#3a5a3a"/>
  <rect x="20" y="6" width="1" height="3" fill="#3a5a3a"/>
  <!-- Heavy brow -->
  <rect x="9" y="10" width="6" height="2" fill="#4a7a4a"/>
  <rect x="17" y="10" width="6" height="2" fill="#4a7a4a"/>
  <!-- Eyes - deep set -->
  <rect x="10" y="12" width="4" height="3" fill="#1a2a1a"/>
  <rect x="18" y="12" width="4" height="3" fill="#1a2a1a"/>
  <rect x="11" y="13" width="2" height="1" fill="#ffcc00"/>
  <rect x="19" y="13" width="2" height="1" fill="#ffcc00"/>
  <!-- Nose -->
  <rect x="15" y="14" width="2" height="4" fill="#5a8a5a"/>
  <!-- Mouth - stitched -->
  <rect x="11" y="19" width="10" height="2" fill="#3a5a3a"/>
  <rect x="12" y="18" width="1" height="4" fill="#2a4a2a"/>
  <rect x="15" y="18" width="1" height="4" fill="#2a4a2a"/>
  <rect x="18" y="18" width="1" height="4" fill="#2a4a2a"/>
  <!-- Neck -->
  <rect x="12" y="22" width="8" height="2" fill="#5a8a5a"/>
  <!-- Jacket -->
  <rect x="6" y="24" width="20" height="8" fill="#2a2a2a"/>
  <rect x="10" y="24" width="12" height="2" fill="#3a3a3a"/>
  <!-- Jacket lapels -->
  <rect x="8" y="26" width="4" height="4" fill="#1a1a1a"/>
  <rect x="20" y="26" width="4" height="4" fill="#1a1a1a"/>
</svg>
