<svg xmlns="http://www.w3.org/2000/svg" viewBox="0 0 32 32" width="256" height="256" style="image-rendering: pixelated;">
  <rect width="32" height="32" fill="#1a0a2a"/>
  <!-- Hat top -->
  <rect x="14" y="0" width="4" height="4" fill="#2a1a3a"/>
  <rect x="12" y="4" width="8" height="4" fill="#2a1a3a"/>
  <!-- Hat brim -->
  <rect x="6" y="8" width="20" height="2" fill="#2a1a3a"/>
  <!-- Hat band -->
  <rect x="10" y="6" width="12" height="2" fill="#6a2a8a"/>
  <!-- Hair -->
  <rect x="6" y="10" width="4" height="12" fill="#4a2a5a"/>
  <rect x="22" y="10" width="4" height="12" fill="#4a2a5a"/>
  <!-- Face -->
  <rect x="10" y="10" width="12" height="12" fill="#7acc7a"/>
  <!-- Eyes -->
  <rect x="11" y="13" width="3" height="3" fill="#1a0a1a"/>
  <rect x="18" y="13" width="3" height="3" fill="#1a0a1a"/>
  <rect x="12" y="14" width="1" height="1" fill="#aa44aa"/>
  <rect x="19" y="14" width="1" height="1" fill="#aa44aa"/>
  <!-- Nose -->
  <rect x="15" y="15" width="2" height="3" fill="#5a9a5a"/>
  <rect x="16" y="17" width="2" height="1" fill="#5a9a5a"/>
  <!-- Mouth -->
  <rect x="13" y="19" width="6" height="1" fill="#3a1a3a"/>
  <!-- Wart -->
  <rect x="17" y="16" width="1" height="1" fill="#4a7a4a"/>
  <!-- Collar/Cloak -->
  <rect x="8" y="22" width="16" height="2" fill="#4a2a6a"/>
  <!-- Body/Robe -->
  <rect x="10" y="24" width="12" height="8" fill="#2a1a3a"/>
  <rect x="6" y="24" width="6" height="8" fill="#3a2a4a"/>
  <rect x="20" y="24" width="6" height="8" fill="#3a2a4a"/>
  <!-- Star decoration -->
  <rect x="14" y="26" width="4" height="4" fill="#ffcc00"/>
</svg>
