<svg xmlns="http://www.w3.org/2000/svg" viewBox="0 0 32 32" width="256" height="256" style="image-rendering: pixelated;">
  <rect width="32" height="32" fill="#1a0a1a"/>
  <!-- Hair -->
  <rect x="8" y="4" width="16" height="4" fill="#1a1a2e"/>
  <rect x="6" y="6" width="4" height="6" fill="#1a1a2e"/>
  <rect x="22" y="6" width="4" height="6" fill="#1a1a2e"/>
  <!-- Face -->
  <rect x="8" y="8" width="16" height="14" fill="#d4c4b0"/>
  <rect x="10" y="8" width="12" height="2" fill="#c4b4a0"/>
  <!-- Eyes -->
  <rect x="10" y="12" width="4" height="3" fill="#8b0000"/>
  <rect x="18" y="12" width="4" height="3" fill="#8b0000"/>
  <rect x="11" y="13" width="2" height="1" fill="#ff0000"/>
  <rect x="19" y="13" width="2" height="1" fill="#ff0000"/>
  <!-- Eyebrows -->
  <rect x="10" y="11" width="4" height="1" fill="#1a1a2e"/>
  <rect x="18" y="11" width="4" height="1" fill="#1a1a2e"/>
  <!-- Nose -->
  <rect x="15" y="15" width="2" height="2" fill="#c4b4a0"/>
  <!-- Mouth with fangs -->
  <rect x="12" y="18" width="8" height="2" fill="#2a0a0a"/>
  <rect x="13" y="19" width="2" height="2" fill="#ffffff"/>
  <rect x="17" y="19" width="2" height="2" fill="#ffffff"/>
  <!-- Cape collar -->
  <rect x="4" y="22" width="6" height="8" fill="#8b0000"/>
  <rect x="22" y="22" width="6" height="8" fill="#8b0000"/>
  <rect x="8" y="22" width="16" height="2" fill="#2a0a2a"/>
  <!-- Body -->
  <rect x="10" y="24" width="12" height="8" fill="#1a1a2e"/>
  <!-- Cape inner -->
  <rect x="6" y="24" width="4" height="6" fill="#4a0a2a"/>
  <rect x="22" y="24" width="4" height="6" fill="#4a0a2a"/>
</svg>
