<svg xmlns="http://www.w3.org/2000/svg" viewBox="0 0 32 32" width="256" height="256" style="image-rendering: pixelated;">
  <rect width="32" height="32" fill="#0a1520"/>
  <!-- Ears -->
  <rect x="6" y="2" width="4" height="6" fill="#5a4a3a"/>
  <rect x="22" y="2" width="4" height="6" fill="#5a4a3a"/>
  <rect x="7" y="3" width="2" height="4" fill="#8a6a5a"/>
  <rect x="23" y="3" width="2" height="4" fill="#8a6a5a"/>
  <!-- Fur/Head -->
  <rect x="8" y="6" width="16" height="16" fill="#5a4a3a"/>
  <rect x="10" y="6" width="12" height="2" fill="#6a5a4a"/>
  <!-- Snout -->
  <rect x="12" y="14" width="8" height="6" fill="#4a3a2a"/>
  <rect x="14" y="14" width="4" height="2" fill="#2a1a0a"/>
  <!-- Eyes -->
  <rect x="10" y="10" width="4" height="3" fill="#ffcc00"/>
  <rect x="18" y="10" width="4" height="3" fill="#ffcc00"/>
  <rect x="11" y="11" width="2" height="1" fill="#ff6600"/>
  <rect x="19" y="11" width="2" height="1" fill="#ff6600"/>
  <!-- Nose -->
  <rect x="14" y="16" width="4" height="2" fill="#1a0a0a"/>
  <!-- Mouth -->
  <rect x="13" y="18" width="6" height="2" fill="#1a0a0a"/>
  <rect x="12" y="19" width="2" height="1" fill="#ffffff"/>
  <rect x="18" y="19" width="2" height="1" fill="#ffffff"/>
  <!-- Chest fur -->
  <rect x="12" y="22" width="8" height="4" fill="#6a5a4a"/>
  <!-- Body -->
  <rect x="8" y="24" width="16" height="8" fill="#3a2a1a"/>
  <!-- Shoulders -->
  <rect x="6" y="24" width="4" height="6" fill="#5a4a3a"/>
  <rect x="22" y="24" width="4" height="6" fill="#5a4a3a"/>
</svg>
