<svg xmlns="http://www.w3.org/2000/svg" viewBox="0 0 32 32" width="256" height="256" style="image-rendering: pixelated;">
  <rect width="32" height="32" fill="#0a0a15"/>
  <!-- Skull -->
  <rect x="8" y="4" width="16" height="14" fill="#e8e8e0"/>
  <rect x="10" y="4" width="12" height="2" fill="#f0f0e8"/>
  <!-- Eye sockets -->
  <rect x="10" y="8" width="4" height="5" fill="#1a1a1a"/>
  <rect x="18" y="8" width="4" height="5" fill="#1a1a1a"/>
  <!-- Eye glow -->
  <rect x="11" y="9" width="2" height="3" fill="#ff2975"/>
  <rect x="19" y="9" width="2" height="3" fill="#ff2975"/>
  <!-- Nose hole -->
  <rect x="14" y="13" width="4" height="3" fill="#1a1a1a"/>
  <rect x="15" y="14" width="2" height="2" fill="#2a2a2a"/>
  <!-- Teeth -->
  <rect x="10" y="17" width="12" height="3" fill="#1a1a1a"/>
  <rect x="10" y="17" width="2" height="2" fill="#e8e8e0"/>
  <rect x="12" y="17" width="2" height="2" fill="#e8e8e0"/>
  <rect x="14" y="17" width="2" height="2" fill="#e8e8e0"/>
  <rect x="16" y="17" width="2" height="2" fill="#e8e8e0"/>
  <rect x="18" y="17" width="2" height="2" fill="#e8e8e0"/>
  <rect x="20" y="17" width="2" height="2" fill="#e8e8e0"/>
  <!-- Neck vertebrae -->
  <rect x="14" y="20" width="4" height="2" fill="#d8d8d0"/>
  <!-- Shoulders/clavicle -->
  <rect x="6" y="22" width="20" height="2" fill="#d8d8d0"/>
  <!-- Ribcage -->
  <rect x="12" y="24" width="8" height="8" fill="#0a0a15"/>
  <rect x="10" y="24" width="2" height="6" fill="#d8d8d0"/>
  <rect x="12" y="25" width="8" height="1" fill="#d8d8d0"/>
  <rect x="12" y="27" width="8" height="1" fill="#d8d8d0"/>
  <rect x="12" y="29" width="8" height="1" fill="#d8d8d0"/>
  <rect x="20" y="24" width="2" height="6" fill="#d8d8d0"/>
  <!-- Spine -->
  <rect x="15" y="24" width="2" height="8" fill="#c8c8c0"/>
</svg>
