<svg xmlns="http://www.w3.org/2000/svg" viewBox="0 0 32 32" width="256" height="256" style="image-rendering: pixelated;">
  <rect width="32" height="32" fill="#1a1a0a"/>
  <!-- Messy hair -->
  <rect x="8" y="4" width="4" height="4" fill="#3a3a2a"/>
  <rect x="14" y="2" width="6" height="4" fill="#3a3a2a"/>
  <rect x="22" y="5" width="3" height="5" fill="#3a3a2a"/>
  <!-- Face -->
  <rect x="8" y="6" width="16" height="16" fill="#6a8a5a"/>
  <!-- Forehead wound -->
  <rect x="18" y="7" width="4" height="2" fill="#4a2a2a"/>
  <!-- Exposed skull patch -->
  <rect x="8" y="8" width="4" height="3" fill="#c8c8b8"/>
  <!-- Eyes -->
  <rect x="10" y="11" width="4" height="4" fill="#e8e8d8"/>
  <rect x="18" y="11" width="4" height="4" fill="#e8e8d8"/>
  <rect x="11" y="13" width="2" height="2" fill="#1a1a0a"/>
  <rect x="20" y="12" width="2" height="2" fill="#1a1a0a"/>
  <!-- Droopy eye -->
  <rect x="18" y="15" width="4" height="1" fill="#5a7a4a"/>
  <!-- Nose -->
  <rect x="15" y="14" width="2" height="3" fill="#5a7a4a"/>
  <!-- Mouth -->
  <rect x="11" y="18" width="10" height="3" fill="#2a1a1a"/>
  <rect x="12" y="18" width="2" height="2" fill="#c8c8b8"/>
  <rect x="16" y="19" width="2" height="2" fill="#c8c8b8"/>
  <rect x="19" y="18" width="1" height="2" fill="#c8c8b8"/>
  <!-- Stitches -->
  <rect x="14" y="10" width="1" height="4" fill="#2a2a1a"/>
  <rect x="13" y="11" width="3" height="1" fill="#2a2a1a"/>
  <!-- Torn clothing -->
  <rect x="8" y="22" width="16" height="10" fill="#4a4a3a"/>
  <rect x="10" y="24" width="4" height="4" fill="#3a3a2a"/>
  <rect x="6" y="22" width="4" height="8" fill="#5a5a4a"/>
  <rect x="22" y="22" width="4" height="8" fill="#5a5a4a"/>
  <!-- Exposed arm bone -->
  <rect x="6" y="26" width="3" height="1" fill="#c8c8b8"/>
</svg>
