<svg xmlns="http://www.w3.org/2000/svg" viewBox="0 0 32 32" width="256" height="256" style="image-rendering: pixelated;">
  <rect width="32" height="32" fill="#1a0a00"/>
  <!-- Stem -->
  <rect x="14" y="2" width="4" height="4" fill="#3a5a2a"/>
  <rect x="15" y="1" width="2" height="2" fill="#4a6a3a"/>
  <!-- Pumpkin body -->
  <rect x="4" y="6" width="24" height="18" fill="#e87800"/>
  <!-- Pumpkin ridges -->
  <rect x="4" y="6" width="4" height="18" fill="#d06800"/>
  <rect x="12" y="6" width="2" height="18" fill="#d06800"/>
  <rect x="18" y="6" width="2" height="18" fill="#d06800"/>
  <rect x="24" y="6" width="4" height="18" fill="#d06800"/>
  <!-- Pumpkin highlights -->
  <rect x="8" y="8" width="4" height="2" fill="#f89020"/>
  <rect x="20" y="8" width="4" height="2" fill="#f89020"/>
  <!-- Eyes - triangles approximated -->
  <rect x="8" y="10" width="6" height="6" fill="#ff6600"/>
  <rect x="9" y="11" width="4" height="4" fill="#ffaa00"/>
  <rect x="10" y="12" width="2" height="2" fill="#ffcc00"/>
  <rect x="18" y="10" width="6" height="6" fill="#ff6600"/>
  <rect x="19" y="11" width="4" height="4" fill="#ffaa00"/>
  <rect x="20" y="12" width="2" height="2" fill="#ffcc00"/>
  <!-- Nose triangle -->
  <rect x="14" y="14" width="4" height="4" fill="#ff6600"/>
  <rect x="15" y="15" width="2" height="2" fill="#ffaa00"/>
  <!-- Mouth - jagged -->
  <rect x="8" y="19" width="16" height="4" fill="#ff6600"/>
  <rect x="10" y="19" width="2" height="2" fill="#ffaa00"/>
  <rect x="14" y="20" width="4" height="2" fill="#ffaa00"/>
  <rect x="20" y="19" width="2" height="2" fill="#ffaa00"/>
  <!-- Teeth silhouette -->
  <rect x="9" y="20" width="2" height="2" fill="#e87800"/>
  <rect x="13" y="19" width="2" height="2" fill="#e87800"/>
  <rect x="17" y="19" width="2" height="2" fill="#e87800"/>
  <rect x="21" y="20" width="2" height="2" fill="#e87800"/>
  <!-- Body/cloak -->
  <rect x="8" y="24" width="16" height="8" fill="#2a1a0a"/>
  <rect x="4" y="26" width="6" height="6" fill="#3a2a1a"/>
  <rect x="22" y="26" width="6" height="6" fill="#3a2a1a"/>
</svg>
